<?xml version="1.0" encoding="UTF-8"?>
<svg id="svg2" xmlns="http://www.w3.org/2000/svg" version="1.1" viewBox="0 0 140 140">
  <defs>
    <style>
      .st0 {
        fill: #fff;
      }

      .st1 {
        fill: #239de0;
      }
    </style>
  </defs>
  <g id="path14">
    <path class="st1" d="M119.81,115.28c-4.35,0-6.43,1.65-8.84,3.57-2.62,2.08-5.59,4.44-11.34,4.44s-8.71-2.36-11.34-4.44c-2.41-1.91-4.49-3.57-8.84-3.57s-6.43,1.65-8.84,3.57c-2.62,2.08-5.59,4.44-11.34,4.44s-8.71-2.36-11.34-4.44c-2.41-1.91-4.5-3.57-8.84-3.57s-6.43,1.65-8.84,3.57c-1.86,1.64-4.03,2.9-6.38,3.71,11.26,9.92,25.41,15.94,40.36,17.18.42.03.84.07,1.26.1,1.51.1,3.02.16,4.55.16s3.04-.07,4.55-.16c.42-.03.84-.06,1.26-.1,18.28-1.52,35.23-10.17,47.19-24.07-1.06-.27-2.15-.4-3.24-.39"/>
  </g>
  <g id="path16">
    <path class="st1" d="M18.92,63.08c4.72,0,7.05-1.85,9.52-3.81,2.6-2.06,5.29-4.2,10.66-4.2s8.05,2.13,10.66,4.2c2.47,1.96,4.79,3.81,9.52,3.81s7.05-1.85,9.52-3.81c2.6-2.06,5.29-4.2,10.66-4.2s8.05,2.13,10.66,4.2c2.46,1.96,4.79,3.81,9.52,3.81s7.05-1.85,9.52-3.81c2.6-2.06,5.29-4.2,10.66-4.2s8.05,2.13,10.66,4.2c2.42,1.92,4.72,3.72,9.26,3.79-.62-6.28-2.1-12.44-4.39-18.32-2.13-.77-4.09-1.93-5.78-3.43-2.52-2-4.89-3.88-9.75-3.88s-7.23,1.89-9.75,3.88c-2.55,2.03-5.19,4.12-10.43,4.12s-7.87-2.09-10.43-4.12c-2.52-2-4.89-3.88-9.74-3.88s-7.23,1.89-9.74,3.88c-2.55,2.03-5.19,4.12-10.43,4.12s-7.87-2.09-10.43-4.12c-2.52-2-4.89-3.88-9.74-3.88s-7.23,1.89-9.74,3.88c-2.55,2.03-5.19,4.12-10.43,4.12s-7.87-2.09-10.43-4.12c-.57-.45-1.13-.89-1.71-1.31-2.33,4.89-4.07,10.03-5.21,15.32,3.55.6,5.73,2.29,7.82,3.95,2.47,1.96,4.79,3.81,9.52,3.81"/>
  </g>
  <g id="path18">
    <path class="st1" d="M18.92,44.34c4.85,0,7.23-1.89,9.74-3.88,2.55-2.03,5.19-4.12,10.43-4.12s7.87,2.1,10.43,4.12c2.52,2,4.89,3.88,9.74,3.88s7.23-1.89,9.74-3.88c2.55-2.03,5.19-4.12,10.43-4.12s7.87,2.1,10.43,4.12c2.52,2,4.89,3.88,9.74,3.88s7.23-1.89,9.74-3.88c2.55-2.03,5.19-4.12,10.44-4.12s7.87,2.1,10.43,4.12c1.37,1.19,2.91,2.17,4.56,2.92C120.07,7.65,79.16-9.42,43.4,5.27,27.63,11.75,14.78,23.75,7.23,39.01c.66.47,1.28.96,1.9,1.45,2.52,2,4.89,3.88,9.74,3.88"/>
  </g>
  <g id="path20">
    <path class="st1" d="M119.81,95.83c-4.47,0-6.6,1.69-9.07,3.65-2.57,2.04-5.49,4.36-11.11,4.36s-8.53-2.31-11.11-4.36c-2.47-1.96-4.6-3.65-9.07-3.65s-6.6,1.69-9.07,3.65c-2.57,2.04-5.49,4.36-11.11,4.36s-8.53-2.31-11.11-4.36c-2.47-1.96-4.59-3.65-9.07-3.65s-6.6,1.69-9.07,3.65c-2.57,2.04-5.49,4.36-11.11,4.36s-8.53-2.31-11.11-4.36c-.65-.52-1.28-1.01-1.94-1.47,3.46,7.9,8.35,15.09,14.43,21.22,3.43-.32,5.32-1.8,7.46-3.5,2.62-2.08,5.59-4.44,11.34-4.44s8.71,2.36,11.34,4.44c2.41,1.91,4.5,3.57,8.84,3.57s6.43-1.65,8.84-3.57c2.62-2.08,5.59-4.44,11.34-4.44s8.71,2.36,11.34,4.44c2.41,1.91,4.5,3.57,8.84,3.57s6.43-1.65,8.84-3.57c2.62-2.08,5.59-4.44,11.34-4.44,2.03-.03,4.05.34,5.95,1.07,2.5-3.28,4.71-6.78,6.59-10.45-1.22-.72-2.38-1.54-3.47-2.44-2.46-1.96-4.59-3.65-9.07-3.65"/>
  </g>
  <g id="path22">
    <path class="st1" d="M139.87,64.89c-5.27-.04-7.95-2.14-10.54-4.19-2.46-1.96-4.79-3.81-9.52-3.81s-7.05,1.85-9.52,3.81c-2.6,2.06-5.29,4.2-10.66,4.2s-8.05-2.13-10.66-4.2c-2.47-1.96-4.79-3.81-9.52-3.81s-7.05,1.85-9.52,3.81c-2.6,2.06-5.29,4.2-10.66,4.2s-8.05-2.13-10.66-4.2c-2.47-1.96-4.79-3.81-9.52-3.81s-7.05,1.85-9.52,3.81c-2.6,2.06-5.29,4.2-10.66,4.2s-8.05-2.13-10.66-4.2c-1.99-1.58-3.91-3.07-7.04-3.59-.63,3.37-1.01,6.78-1.14,10.2-.03.9-.07,1.79-.07,2.7s.03,1.8.07,2.7c.01.39.02.78.04,1.17,4.59.35,7.2,2.38,9.5,4.21,2.41,1.92,4.69,3.73,9.29,3.73s6.88-1.81,9.29-3.73c2.53-2.01,5.39-4.28,10.89-4.28s8.35,2.27,10.88,4.28c2.41,1.92,4.69,3.73,9.29,3.73s6.88-1.81,9.29-3.73c2.53-2.01,5.39-4.28,10.89-4.28s8.35,2.27,10.88,4.28c2.41,1.92,4.69,3.73,9.29,3.73s6.88-1.81,9.29-3.73c2.53-2.01,5.39-4.28,10.89-4.28s8.35,2.27,10.89,4.28c2.24,1.78,4.4,3.45,8.38,3.68.36-2.13.62-4.29.79-6.48.07-.86.12-1.71.15-2.58v-5.41c-.03-.87-.14-2.42-.14-2.42"/>
  </g>
  <g id="path24">
    <path class="st1" d="M119.81,76.36c-4.6,0-6.88,1.81-9.29,3.73-2.53,2.01-5.39,4.28-10.89,4.28s-8.35-2.27-10.89-4.28c-2.41-1.92-4.69-3.73-9.29-3.73s-6.88,1.81-9.29,3.73c-2.53,2.01-5.39,4.28-10.88,4.28s-8.35-2.27-10.89-4.28c-2.41-1.92-4.69-3.73-9.29-3.73s-6.88,1.81-9.29,3.73c-2.53,2.01-5.39,4.28-10.88,4.28s-8.35-2.27-10.89-4.28c-2.12-1.68-4.14-3.28-7.72-3.65.53,5.78,1.78,11.48,3.72,16.95,2.13.82,4.09,2.01,5.81,3.52,2.47,1.96,4.59,3.65,9.07,3.65s6.6-1.69,9.07-3.65c2.57-2.04,5.49-4.36,11.11-4.36s8.53,2.31,11.11,4.36c2.47,1.96,4.59,3.65,9.07,3.65s6.6-1.69,9.07-3.65c2.57-2.04,5.49-4.36,11.11-4.36s8.53,2.31,11.11,4.36c2.47,1.96,4.59,3.65,9.07,3.65s6.6-1.69,9.07-3.65c2.57-2.04,5.49-4.36,11.11-4.36s8.53,2.31,11.11,4.36c.91.75,1.86,1.44,2.86,2.06,2.15-4.7,3.77-9.62,4.83-14.68-4.59-.35-7.2-2.38-9.5-4.21-2.41-1.92-4.69-3.73-9.29-3.73"/>
  </g>
  <g id="path26">
    <path class="st0" d="M108.47,115.72c-2.41,1.91-4.49,3.57-8.84,3.57s-6.43-1.65-8.84-3.57c-2.62-2.08-5.59-4.44-11.34-4.44s-8.71,2.36-11.34,4.44c-2.41,1.91-4.5,3.57-8.84,3.57s-6.43-1.65-8.84-3.57c-2.62-2.08-5.59-4.44-11.34-4.44s-8.71,2.36-11.34,4.44c-2.14,1.7-4.03,3.19-7.46,3.5,1.15,1.16,2.34,2.27,3.57,3.35,2.35-.81,4.52-2.07,6.38-3.71,2.41-1.91,4.49-3.57,8.84-3.57s6.43,1.65,8.84,3.57c2.62,2.08,5.59,4.44,11.34,4.44s8.71-2.36,11.34-4.44c2.41-1.91,4.49-3.57,8.84-3.57s6.43,1.65,8.84,3.57c2.62,2.08,5.59,4.44,11.34,4.44s8.71-2.36,11.34-4.44c2.41-1.91,4.5-3.57,8.84-3.57,1.09,0,2.18.12,3.24.39.93-1.08,1.84-2.18,2.71-3.32-1.89-.74-3.91-1.1-5.95-1.07-5.74,0-8.71,2.36-11.34,4.44"/>
  </g>
  <g id="path28">
    <path class="st0" d="M119.81,92.55c-5.61,0-8.53,2.31-11.11,4.36-2.47,1.96-4.59,3.65-9.07,3.65s-6.6-1.69-9.07-3.65c-2.57-2.04-5.49-4.36-11.11-4.36s-8.53,2.31-11.11,4.36c-2.46,1.96-4.59,3.65-9.07,3.65s-6.6-1.69-9.07-3.65c-2.57-2.04-5.49-4.36-11.11-4.36s-8.53,2.31-11.11,4.36c-2.47,1.96-4.59,3.65-9.07,3.65s-6.6-1.69-9.07-3.65c-1.71-1.5-3.68-2.7-5.81-3.52.56,1.57,1.17,3.1,1.83,4.62.66.45,1.29.95,1.94,1.47,2.57,2.04,5.49,4.36,11.11,4.36s8.53-2.31,11.11-4.36c2.47-1.96,4.59-3.65,9.07-3.65s6.6,1.69,9.07,3.65c2.57,2.04,5.49,4.36,11.11,4.36s8.53-2.31,11.11-4.36c2.47-1.96,4.6-3.65,9.07-3.65s6.6,1.69,9.07,3.65c2.57,2.04,5.49,4.36,11.11,4.36s8.53-2.31,11.11-4.36c2.46-1.96,4.59-3.65,9.07-3.65s6.6,1.69,9.07,3.65c1.09.9,2.25,1.72,3.47,2.44.5-.97.97-1.95,1.43-2.94-1-.62-1.96-1.31-2.86-2.06-2.57-2.04-5.49-4.36-11.11-4.36"/>
  </g>
  <g id="path30">
    <path class="st0" d="M119.81,73.81c-5.49,0-8.35,2.27-10.89,4.28-2.41,1.92-4.69,3.73-9.29,3.73s-6.88-1.81-9.29-3.73c-2.53-2.01-5.39-4.28-10.88-4.28s-8.35,2.27-10.89,4.28c-2.41,1.92-4.69,3.73-9.29,3.73s-6.88-1.81-9.29-3.73c-2.53-2.01-5.39-4.28-10.88-4.28s-8.35,2.27-10.89,4.28c-2.41,1.92-4.69,3.73-9.29,3.73s-6.88-1.81-9.29-3.73c-2.3-1.83-4.91-3.86-9.5-4.21.05.86.12,1.71.2,2.55,3.58.36,5.6,1.96,7.72,3.65,2.53,2.01,5.39,4.28,10.89,4.28s8.35-2.27,10.88-4.28c2.41-1.92,4.69-3.73,9.29-3.73s6.88,1.81,9.29,3.73c2.53,2.01,5.39,4.28,10.89,4.28s8.35-2.27,10.88-4.28c2.41-1.92,4.7-3.73,9.29-3.73s6.88,1.81,9.29,3.73c2.53,2.01,5.39,4.28,10.89,4.28s8.35-2.27,10.89-4.28c2.41-1.92,4.69-3.73,9.29-3.73s6.88,1.81,9.29,3.73c2.3,1.83,4.91,3.86,9.5,4.21.17-.83.32-1.68.46-2.52-3.98-.23-6.13-1.9-8.38-3.68-2.53-2.01-5.39-4.28-10.89-4.28"/>
  </g>
  <g id="path32">
    <path class="st0" d="M18.92,64.9c5.36,0,8.05-2.13,10.66-4.2,2.47-1.96,4.79-3.81,9.52-3.81s7.05,1.85,9.52,3.81c2.6,2.06,5.29,4.2,10.66,4.2s8.05-2.13,10.66-4.2c2.46-1.96,4.79-3.81,9.52-3.81s7.05,1.85,9.52,3.81c2.6,2.06,5.29,4.2,10.66,4.2s8.05-2.13,10.66-4.2c2.47-1.96,4.79-3.81,9.52-3.81s7.05,1.85,9.52,3.81c2.58,2.05,5.26,4.16,10.54,4.19v-.17c-.05-.55-.08-1.11-.14-1.66-4.55-.07-6.85-1.87-9.26-3.79-2.6-2.06-5.29-4.2-10.66-4.2s-8.05,2.13-10.66,4.2c-2.47,1.96-4.79,3.81-9.52,3.81s-7.05-1.85-9.52-3.81c-2.6-2.06-5.29-4.2-10.66-4.2s-8.05,2.13-10.66,4.2c-2.47,1.96-4.79,3.81-9.52,3.81s-7.05-1.85-9.52-3.81c-2.6-2.06-5.29-4.2-10.66-4.2s-8.05,2.13-10.66,4.2c-2.47,1.96-4.79,3.81-9.52,3.81s-7.05-1.85-9.52-3.81c-2.09-1.66-4.27-3.35-7.82-3.95-.13.59-.24,1.19-.35,1.79,3.13.53,5.05,2.01,7.04,3.59,2.6,2.06,5.29,4.2,10.66,4.2"/>
  </g>
  <g id="path34">
    <path class="st0" d="M18.92,45.43c5.23,0,7.87-2.09,10.43-4.12,2.52-2,4.89-3.88,9.74-3.88s7.23,1.89,9.74,3.88c2.55,2.03,5.19,4.12,10.43,4.12s7.87-2.09,10.43-4.12c2.52-2,4.89-3.88,9.74-3.88s7.23,1.89,9.74,3.88c2.55,2.03,5.19,4.12,10.43,4.12s7.87-2.09,10.43-4.12c2.52-2,4.89-3.88,9.75-3.88s7.23,1.89,9.75,3.88c1.69,1.5,3.65,2.66,5.78,3.43-.18-.46-.35-.91-.54-1.36-1.65-.75-3.19-1.74-4.56-2.92-2.55-2.03-5.19-4.12-10.43-4.12s-7.87,2.1-10.44,4.12c-2.52,2-4.89,3.88-9.74,3.88s-7.23-1.89-9.74-3.88c-2.55-2.03-5.19-4.12-10.43-4.12s-7.87,2.1-10.43,4.12c-2.52,2-4.89,3.88-9.74,3.88s-7.23-1.89-9.74-3.88c-2.55-2.03-5.19-4.12-10.43-4.12s-7.87,2.1-10.43,4.12c-2.52,2-4.89,3.88-9.74,3.88s-7.23-1.89-9.74-3.88c-.61-.49-1.24-.98-1.9-1.45-.16.33-.33.66-.49.99.58.42,1.14.86,1.71,1.31,2.55,2.03,5.19,4.12,10.43,4.12"/>
  </g>
</svg>