<svg xmlns="http://www.w3.org/2000/svg" xmlns:xlink="http://www.w3.org/1999/xlink" viewBox="19.99 31.44 94.35 47.24" role="img" aria-label="kro">
  <defs>
    <g id="kro-k"><path d="M 12.496094 -10.234375 L 12.496094 -21.503906 L 13.917969 -21.503906 L 25.34375 -34.9375 L 36.175781 -34.9375 L 21.085938 -17.414062 L 18.871094 -17.414062 Z M 3.992188 0 L 3.992188 -46.5625 L 13.363281 -46.5625 L 13.363281 0 Z M 25.800781 0 L 15.328125 -15.320312 L 21.589844 -21.972656 L 36.847656 0 Z M 25.800781 0 "/></g>
    <g id="kro-r"><path d="M 3.992188 0 L 3.992188 -34.9375 L 13.074219 -34.9375 L 13.074219 -28.855469 L 13.449219 -28.855469 C 14.085938 -31.007812 15.15625 -32.636719 16.667969 -33.742188 C 18.175781 -34.851562 19.910156 -35.402344 21.871094 -35.402344 C 22.355469 -35.402344 22.875 -35.375 23.433594 -35.320312 C 23.988281 -35.265625 24.476562 -35.191406 24.902344 -35.089844 L 24.902344 -26.71875 C 24.488281 -26.859375 23.882812 -26.976562 23.085938 -27.066406 C 22.289062 -27.152344 21.542969 -27.199219 20.851562 -27.199219 C 19.421875 -27.199219 18.136719 -26.890625 17 -26.269531 C 15.863281 -25.652344 14.972656 -24.792969 14.328125 -23.699219 C 13.683594 -22.605469 13.363281 -21.332031 13.363281 -19.882812 L 13.363281 0 Z M 3.992188 0 "/></g>
    <g id="kro-o"><path d="M 19.628906 0.683594 C 16.125 0.683594 13.09375 -0.0703125 10.53125 -1.574219 C 7.972656 -3.082031 6 -5.1875 4.617188 -7.886719 C 3.234375 -10.589844 2.542969 -13.734375 2.542969 -17.316406 C 2.542969 -20.929688 3.234375 -24.089844 4.617188 -26.796875 C 6 -29.503906 7.972656 -31.609375 10.53125 -33.117188 C 13.09375 -34.621094 16.125 -35.375 19.628906 -35.375 C 23.140625 -35.375 26.175781 -34.621094 28.730469 -33.117188 C 31.28125 -31.609375 33.25 -29.503906 34.636719 -26.796875 C 36.019531 -24.089844 36.710938 -20.929688 36.710938 -17.316406 C 36.710938 -13.734375 36.019531 -10.589844 34.636719 -7.886719 C 33.25 -5.1875 31.28125 -3.082031 28.730469 -1.574219 C 26.175781 -0.0703125 23.140625 0.683594 19.628906 0.683594 Z M 19.628906 -6.695312 C 21.296875 -6.695312 22.691406 -7.15625 23.8125 -8.085938 C 24.933594 -9.011719 25.773438 -10.28125 26.335938 -11.890625 C 26.894531 -13.496094 27.175781 -15.320312 27.175781 -17.351562 C 27.175781 -19.40625 26.894531 -21.234375 26.335938 -22.835938 C 25.773438 -24.433594 24.933594 -25.695312 23.8125 -26.617188 C 22.691406 -27.539062 21.296875 -27.996094 19.628906 -27.996094 C 17.960938 -27.996094 16.566406 -27.539062 15.449219 -26.617188 C 14.332031 -25.695312 13.492188 -24.4375 12.929688 -22.839844 C 12.371094 -21.246094 12.089844 -19.414062 12.089844 -17.351562 C 12.089844 -15.320312 12.371094 -13.496094 12.929688 -11.890625 C 13.492188 -10.28125 14.332031 -9.011719 15.449219 -8.085938 C 16.566406 -7.15625 17.960938 -6.695312 19.628906 -6.695312 Z M 19.628906 -6.695312 "/></g>
  </defs>
  <g fill="currentColor">
    <use xlink:href="#kro-k" x="16" y="78"/>
    <use xlink:href="#kro-r" x="53.125" y="78"/>
    <use xlink:href="#kro-o" x="77.625" y="78"/>
  </g>
</svg>
