<?xml version="1.0" encoding="UTF-8"?>
<svg id="a" data-name="Layer 1" xmlns="http://www.w3.org/2000/svg" width="593.51" height="595.02" viewBox="0 0 593.51 595.02">
  <path d="M397.58,24.64l6.06,26.28c18.1,7.82,35.28,17.6,51.24,29.18l25.69-8.21h0c14.59,11.86,27.99,25.1,40.03,39.55h0s-7.9,25.8-7.9,25.8c11.77,15.82,21.76,32.88,29.79,50.89l26.36,5.74h0c6.7,17.57,11.69,35.74,14.89,54.27h0s-19.74,18.4-19.74,18.4c2.28,19.58,2.4,39.36.36,58.97l19.96,18.15h0c-2.98,18.57-7.74,36.8-14.23,54.45h0s-26.28,6.06-26.28,6.06c-7.82,18.1-17.6,35.28-29.18,51.24l8.21,25.69h0c-11.86,14.6-25.1,28-39.54,40.04h0s-25.79-7.89-25.79-7.89c-15.82,11.77-32.88,21.76-50.89,29.79l-5.74,26.36h0c-17.56,6.71-35.74,11.7-54.26,14.9h0s-18.39-19.74-18.39-19.74c-19.58,2.28-39.36,2.4-58.97.36l-18.15,19.96h0c-18.56-2.97-36.79-7.74-54.44-14.23h0s-6.06-26.29-6.06-26.29c-18.1-7.82-35.28-17.6-51.24-29.17l-25.69,8.21h-.01c-14.59-11.86-27.99-25.1-40.02-39.55h0s7.9-25.8,7.9-25.8c-11.77-15.82-21.76-32.88-29.79-50.89l-26.36-5.74h0c-6.7-17.57-11.69-35.74-14.89-54.26h0s19.73-18.4,19.73-18.4c-2.28-19.58-2.4-39.36-.36-58.97l-19.96-18.15h0c2.98-18.57,7.74-36.8,14.23-54.44h0s26.28-6.06,26.28-6.06c7.81-18.1,17.6-35.28,29.17-51.24l-8.21-25.69h0c11.86-14.6,25.1-28,39.54-40.04h0s25.79,7.9,25.79,7.9c15.82-11.77,32.88-21.76,50.89-29.79l5.74-26.36h0c17.56-6.71,35.73-11.7,54.26-14.9h.01s18.39,19.74,18.39,19.74c19.58-2.28,39.36-2.4,58.96-.36l18.15-19.95h0c18.56,2.97,36.79,7.74,54.44,14.23h0ZM266.19,305.93c-.8-3.02-1.01-6.07-1.07-8.78-.11-4.75,2.03-9.41,6.25-11.9,2.19-1.29,3.61-3.56,3.83-6.09.21-2.53-.91-5.62-2.75-7.37-.94-.91-2.08-1.6-3.32-2.02-2.47-.84-5.15-.11-7.34,1.31-2.19,1.42-3.53,3.84-3.55,6.45v.16c-.05,4.92-3.28,8.95-7.58,11.22-2.18,1.7-4.8,2.91-7.87,3.59-.44.1-.9.03-1.3-.2l-30.34-17.52-83.17,48.01v96.03s83.16,48.02,83.16,48.02l83.17-48.01v-29.04c0-.3-.07-.6-.2-.88l-.69-1.46c-1.69-3.6-5.72-5.46-9.56-4.43l-5.51,1.49c-7.57,2.04-15.35-2.45-17.39-10.02-.32-1.2-.49-2.44-.49-3.68h0c0-7.84,6.36-14.19,14.2-14.19,1.24,0,2.48.16,3.67.49l5.03,1.35c4.15,1.11,8.5-.92,10.31-4.82l.48-1.03c.09-.2.13-.41.14-.63v-29.17s-27.3-15.76-27.3-15.76c-.42-.24-.72-.63-.84-1.1M327.51,302.91c3.02.82,5.76,2.16,8.14,3.47,4.16,2.28,7.13,6.46,7.18,11.36.02,2.54,1.27,4.91,3.35,6.36s5.3,1.92,7.76,1.3c1.31-.32,2.42-.99,3.41-1.86,1.97-1.72,2.67-4.4,2.54-7.01-.13-2.65-1.61-5.05-3.91-6.36-4.24-2.49-5.4-7.41-6.09-12.2-.14-2.71.03-5.58.96-8.59.14-.43.43-.8.82-1.03l30.34-17.51v-96.03s-83.16-48.01-83.16-48.01l-83.16,48.01v96.03s25.15,14.52,25.15,14.52c.26.15.56.24.86.27l1.61.14c3.96.33,7.59-2.23,8.61-6.07l1.47-5.51c2.02-7.57,9.8-12.07,17.37-10.05,1.2.32,2.35.8,3.43,1.42h0c6.79,3.93,9.11,12.61,5.18,19.39-.62,1.07-1.38,2.06-2.26,2.94l-3.68,3.68c-3.04,3.04-3.46,7.83-.98,11.34l.66.93c.12.18.29.33.48.43l25.26,14.59,27.3-15.76c.42-.23.91-.3,1.37-.18M299.55,356.73c-2.21,2.21-4.74,3.92-7.05,5.33-4.05,2.47-9.16,2.97-13.43.57-2.21-1.24-4.89-1.34-7.19-.25-2.29,1.09-4.45,3.6-4.99,6.08-.28,1.29-.35,2.58-.08,3.88.52,2.56,2.49,4.5,4.82,5.69,2.33,1.18,5.09,1.12,7.36-.17l.13-.08c4.27-2.43,11.42-1.17,14.11.36,2.36,1.34,4.38,3.21,6.48,5.56.29.33.46.76.46,1.2l.1,35.04,83.3,47.78,83.03-48.25-.27-96.03-83.3-47.78-25.11,14.59c-.26.15-.49.36-.66.61l-.92,1.33c-2.26,3.27-1.84,7.69.98,10.49l4.05,4.02c5.56,5.52,5.6,14.5.08,20.06-.88.88-1.87,1.65-2.94,2.28h0c-6.77,3.94-15.46,1.64-19.39-5.14-.62-1.07-1.11-2.23-1.43-3.43l-1.36-5.02c-1.12-4.15-5.07-6.89-9.35-6.5l-1.14.11c-.22.02-.42.09-.61.2l-25.23,14.66.09,31.52c0,.48-.19.94-.53,1.28" fill="#257ddc" fill-rule="evenodd"/>
  <path d="M382.05,174.89l195.94,198.61c-2.25,8.32-4.86,16.54-7.84,24.63l-26.29,6.06c-7.82,18.1-17.6,35.29-29.18,51.25l8.21,25.7c-11.86,14.59-25.1,27.99-39.54,40.03l-25.8-7.9c-15.82,11.77-32.89,21.76-50.89,29.8l-5.74,26.36c-17.56,6.71-35.73,11.69-54.26,14.89l-18.39-19.74c-15.65,1.82-31.43,2.27-47.15,1.33l-153.07-146.81.16-.12,83,47.92,83.16-48.02v-29.04c0-.3-.07-.6-.2-.88l-.69-1.46c-1.69-3.6-5.72-5.46-9.56-4.43l-5.51,1.48c-7.56,2.04-15.34-2.43-17.39-9.99-.33-1.21-.49-2.45-.49-3.7h0c0-7.83,6.34-14.18,14.17-14.19,1.25,0,2.49.16,3.7.49l5.03,1.35c4.15,1.12,8.51-.92,10.31-4.82l.48-1.03c.09-.2.14-.41.14-.63v-29.17s-23.13-13.36-27.29-15.76c-.42-.24-.72-.63-.84-1.1-.8-3.03-1.01-6.07-1.07-8.78-.1-4.75,2.03-9.41,6.25-11.9,2.19-1.29,3.61-3.56,3.83-6.09.22-2.53-.92-5.62-2.75-7.37-.94-.91-2.07-1.6-3.32-2.02-2.47-.84-5.14-.11-7.34,1.31-2.19,1.42-3.53,3.84-3.55,6.45v.16c-.05,4.91-3.28,8.95-7.57,11.21-1.2.63-3.27,2.43-5.72,3.03-1.71.42-3.74.38-3.74.38,0,0-2.6-1.81-5.55-3.36l-20.02-18.18,25.18,14.6c.27.15.55.24.86.27l1.61.13c3.96.33,7.59-2.23,8.61-6.07l1.47-5.51c2.01-7.57,9.78-12.07,17.35-10.06,1.21.32,2.37.8,3.45,1.42h0c6.79,3.92,9.11,12.6,5.19,19.39-.62,1.07-1.38,2.06-2.26,2.94l-3.69,3.68c-3.04,3.04-3.46,7.83-.98,11.34l.66.93c.13.18.28.32.48.44l25.27,14.59s23.13-13.36,27.3-15.76c.42-.24.91-.3,1.37-.18,3.02.82,5.76,2.16,8.14,3.47,4.16,2.28,7.13,6.47,7.18,11.36.02,2.54,1.27,4.91,3.35,6.36,2.08,1.45,5.3,1.91,7.76,1.31,1.31-.32,2.42-.99,3.41-1.86,1.97-1.71,2.67-4.4,2.54-7.01-.13-2.61-1.56-4.98-3.81-6.3,0,0-.08-.05-.1-.06-4.24-2.49-5.4-7.41-6.1-12.2-.14-2.71.03-5.58.96-8.59.14-.43.43-.8.82-1.03l30.34-17.52v-96ZM215.72,265.82l-.9-.82.9-.49v1.31ZM299.6,356.79c-2.22,2.21-4.74,3.92-7.05,5.33-4.05,2.47-9.16,2.97-13.43.57-2.21-1.24-4.89-1.34-7.19-.25-2.29,1.09-4.45,3.6-4.99,6.08-.3,1.27-.33,2.6-.08,3.88.52,2.56,2.49,4.5,4.82,5.69,2.33,1.19,5.09,1.12,7.36-.17.1-.06.11-.07.13-.08,4.27-2.43,11.42-1.16,14.11.36,2.36,1.34,4.38,3.21,6.48,5.56.3.33.46.76.46,1.2l.1,35.04,83.3,47.78,83.03-48.25-.27-96.03-83.3-47.78-25.11,14.59c-.26.15-.49.36-.66.61l-.92,1.33c-2.26,3.27-1.85,7.69.98,10.49l4.05,4.02c5.56,5.52,5.6,14.51.08,20.07-.88.88-1.86,1.64-2.94,2.27h0c-6.78,3.94-15.46,1.63-19.4-5.15-.62-1.07-1.1-2.22-1.43-3.42l-1.36-5.02c-1.12-4.15-5.07-6.89-9.35-6.5l-1.14.11c-.22.02-.42.09-.61.19l-25.22,14.66s.08,26.71.09,31.52c0,.48-.19.94-.52,1.28" fill="#1d65b4" fill-rule="evenodd"/>
</svg>
