<?xml version="1.0" encoding="UTF-8"?>
<svg id="Layer_2" data-name="Layer 2" xmlns="http://www.w3.org/2000/svg" viewBox="0 0 96.27 96.21">
  <defs>
    <style>
      .cls-1 {
        fill: rgba(0, 112, 242, 0);
        opacity: 0;
      }

      .cls-2 {
        fill: #07838f;
      }
    </style>
  </defs>
  <g id="Icons_1inch" data-name="Icons 1inch">
    <g id="company-view">
      <path class="cls-1" d="M.06,0h96.21v96.21H.06V0Z"/>
      <path class="cls-2" d="M84.6,43.11s.24-.18.3-.24c4.51-4.45,6.31-10.88,4.81-17.26-1.56-6.37-6.73-11.49-13.11-13.11-3.55-.84-7.16-.6-10.46.54-3.43-3.55-8-6.13-12.99-7.04-7.16-1.2-14.37.72-19.78,5.29-.78.66-1.38,1.44-2.1,2.16-1.26-.54-2.59-1.02-3.97-1.26-5.89-1.02-11.91.9-16.06,5.17-4.21,4.27-5.95,10.16-4.87,16.24.72,3.67,2.65,6.98,5.29,9.5C4.69,47.62,0,55.44,0,64.34v8.96c0,2.65,2.22,4.87,4.87,4.87h7.94s-.06.6-.06.9v6.01c0,2.65,2.16,4.81,4.81,4.81h62.54c2.65,0,4.81-2.16,4.81-4.81v-6.01c0-.3,0-.6-.06-.9h6.55c2.65,0,4.81-2.16,4.81-4.81v-9.02c0-8.9-4.63-16.72-11.67-21.23h.06ZM74.32,21.83c2.89.72,5.35,3.13,6.01,6.01.72,3.07-.06,6.07-2.22,8.18-1.86,1.8-4.33,2.59-6.98,2.28,1.56-4.03,2.1-8.48,1.38-12.87-.24-1.32-.54-2.53-1.02-3.79.9-.06,1.86,0,2.83.18ZM48.83,15.27c.9,0,1.74.06,2.65.24,3.73.66,6.98,2.83,9.14,5.83.06.12.06.24.18.36.06.06.18.12.24.24,1.02,1.56,1.74,3.25,2.04,5.11.78,4.39-.36,8.66-3.19,11.97-2.77,3.25-6.79,5.11-11.06,5.11-7.94,0-14.43-6.49-14.43-14.43,0-4.27,1.86-8.3,5.11-11.06,2.65-2.22,5.89-3.37,9.32-3.37ZM18.04,24.11c1.98-1.98,4.75-2.89,7.52-2.41.24,0,.42.12.66.24-.84,2.47-1.44,5.11-1.44,7.82,0,2.95.66,5.77,1.68,8.36-1.26.36-2.65.48-4.09.24-3.25-.66-5.95-3.37-6.55-6.49-.54-2.89.3-5.65,2.28-7.64l-.06-.12ZM9.62,68.49v-4.21c0-8.6,7.04-15.63,15.63-15.63h5.47c-7.7,4.27-13.59,11.3-16.3,19.84h-4.81ZM75.28,80.22H22.43v-1.2c0-13.95,11.3-25.26,25.26-25.26h2.41c13.95,0,25.26,11.3,25.26,25.26v1.2h-.06ZM86.59,68.49h-3.31c-2.71-8.54-8.66-15.57-16.3-19.84h4.03c8.6,0,15.63,7.04,15.63,15.63v4.21h-.06Z"/>
    </g>
  </g>
</svg>